<?xml version="1.0" encoding="utf-8"?>
<!DOCTYPE svg PUBLIC "-//W3C//DTD SVG 1.1//EN" "http://www.w3.org/Graphics/SVG/1.1/DTD/svg11.dtd">
<svg version="1.1" id="Layer_1" xmlns="http://www.w3.org/2000/svg" xmlns:xlink="http://www.w3.org/1999/xlink" x="0px" y="0px" width="128px" height="128px" viewBox="0 0 128 128" enable-background="new 0 0 128 128" xml:space="preserve">
	<linearGradient id="SVGID_1_" gradientUnits="userSpaceOnUse" x1="45.6152" y1="19.6147" x2="82.385" y2="108.3848">
		<stop  offset="0" style="stop-color:#666666"/>
		<stop  offset="1" style="stop-color:#000000"/>
	</linearGradient>
	<polygon fill="url(#SVGID_1_)" points="12,64 32,44 44,44 44,32 64,12 84,32 84,44 96,44 116,64 96,84 84,84 84,96 64,116 44,96 44,84 32,84 "/>
	<polyline fill="#FDB813" points="28,60 60,60 60,28 44,44 28,60 "/>
	<polygon fill="#FAA61A" points="68,60 100,60 84,44 68,28 "/>
	<polygon fill="#F58220" points="68,100 100,68 68,68 "/>
	<polyline fill="#E96A20" points="28,68 60,100 60,68 28,68 "/>
</svg>
