<?xml version="1.0" encoding="UTF-8" standalone="no"?>
<svg
   xmlns:dc="http://purl.org/dc/elements/1.1/"
   xmlns:cc="http://creativecommons.org/ns#"
   xmlns:rdf="http://www.w3.org/1999/02/22-rdf-syntax-ns#"
   xmlns:svg="http://www.w3.org/2000/svg"
   xmlns="http://www.w3.org/2000/svg"
   xmlns:sodipodi="http://sodipodi.sourceforge.net/DTD/sodipodi-0.dtd"
   xmlns:inkscape="http://www.inkscape.org/namespaces/inkscape"
   version="1.1"
   id="Layer_1"
   x="0px"
   y="0px"
   width="215"
   height="64"
   viewBox="0 0 215 64"
   enable-background="new 0 0 128 128"
   xml:space="preserve"
   inkscape:version="0.48.4 r9939"
   sodipodi:docname="unihx_logo_complete.svg"
   inkscape:export-filename="/var/dev/projs/unihx/extra/assets/unihx_logo_64.png"
   inkscape:export-xdpi="90"
   inkscape:export-ydpi="90"><metadata
     id="metadata22"><rdf:RDF><cc:Work
         rdf:about=""><dc:format>image/svg+xml</dc:format><dc:type
           rdf:resource="http://purl.org/dc/dcmitype/StillImage" /><dc:title></dc:title></cc:Work></rdf:RDF></metadata><defs
     id="defs20" /><sodipodi:namedview
     pagecolor="#ffffff"
     bordercolor="#666666"
     borderopacity="1"
     objecttolerance="10"
     gridtolerance="10"
     guidetolerance="10"
     inkscape:pageopacity="0"
     inkscape:pageshadow="2"
     inkscape:window-width="707"
     inkscape:window-height="480"
     id="namedview18"
     showgrid="false"
     inkscape:zoom="0.92187502"
     inkscape:cx="217.69343"
     inkscape:cy="-52.180462"
     inkscape:window-x="227"
     inkscape:window-y="207"
     inkscape:window-maximized="0"
     inkscape:current-layer="Layer_1" /><linearGradient
     id="SVGID_1_"
     gradientUnits="userSpaceOnUse"
     x1="45.6152"
     y1="19.6147"
     x2="82.385002"
     y2="108.3848"><stop
       offset="0"
       style="stop-color:#666666"
       id="stop4" /><stop
       offset="1"
       style="stop-color:#000000"
       id="stop6" /></linearGradient><polygon
     points="84,96 64,116 44,96 44,84 32,84 12,64 32,44 44,44 44,32 64,12 84,32 84,44 96,44 116,64 96,84 84,84 "
     id="polygon8"
     style="fill:url(#SVGID_1_)"
     transform="scale(0.5,0.5)" /><polyline
     points="28,60 60,60 60,28 44,44 28,60 "
     id="polyline10"
     style="fill:#fdb813"
     transform="matrix(0.40207157,0,0,0.40207157,5.26742,5.26742)" /><polygon
     points="100,60 84,44 68,28 68,60 "
     id="polygon12"
     style="fill:#faa61a"
     transform="matrix(0.40207157,0,0,0.40207157,7.26742,5.26742)" /><polygon
     points="68,68 68,100 100,68 "
     id="polygon14"
     style="fill:#f58220"
     transform="matrix(0.40207157,0,0,0.40207157,7.26742,7.26742)" /><polyline
     points="28,68 60,100 60,68 28,68 "
     id="polyline16"
     style="fill:#e96a20"
     transform="matrix(0.40207157,0,0,0.40207157,5.26742,7.26742)" /><path
     inkscape:connector-curvature="0"
     id="path5361-6-7-3-3-3"
     style="fill:#111111;fill-opacity:1;fill-rule:nonzero;stroke:none;display:inline"
     d="m 82.570589,18.909779 0,20.376573 c 0,1.558511 0.65897,2.337997 2.33779,2.337997 1.79826,0 4.97418,-1.079111 7.61108,-2.456663 l 0,-20.257907 7.31197,0 0,29.186975 -5.57343,0 -0.7192,-2.457849 c -3.65624,1.798262 -8.27107,3.056942 -11.6869,3.056942 -4.85474,0 -6.59225,-3.416697 -6.59225,-8.62903 l 0,-21.157038 7.31094,0" /><path
     inkscape:connector-curvature="0"
     id="path5363-17-3-8-9-7"
     style="fill:#111111;fill-opacity:1;fill-rule:nonzero;stroke:none;display:inline"
     d="m 120.21825,48.09675 0,-20.376725 c 0,-1.558562 -0.65948,-2.336814 -2.33779,-2.336814 -1.79775,0 -4.97418,1.078906 -7.6116,2.456663 l 0,20.25688 -7.31094,0 0,-29.186975 5.57343,0 0.72023,2.457435 c 3.6547,-1.79785 8.26902,-3.056736 11.68587,-3.056736 4.85423,0 6.59174,3.416697 6.59174,8.630266 l 0,21.15601 -7.31094,0" /><path
     inkscape:connector-curvature="0"
     id="path5365-73-0-1-6-8"
     style="fill:#111111;fill-opacity:1;fill-rule:nonzero;stroke:none;display:inline"
     d="m 130.54294,48.09675 0,-29.186971 7.31197,0 0,29.186971 -7.31197,0 z m 0,-33.321634 0,-8.4502849 7.31197,0 0,8.4502849 -7.31197,0" /><text
     xml:space="preserve"
     style="font-size:40.19376373px;font-style:normal;font-variant:normal;font-weight:800;font-stretch:normal;text-align:start;line-height:125%;letter-spacing:0px;word-spacing:0px;writing-mode:lr-tb;text-anchor:start;fill:#f36f21;fill-opacity:1;stroke:none;display:inline;font-family:Raleway;-inkscape-font-specification:Raleway Ultra-Bold"
     x="141.6412"
     y="48.209358"
     id="text5584-8-9-8-1-6-3"
     sodipodi:linespacing="125%"><tspan
       sodipodi:role="line"
       id="tspan5586-3-8-3-6-2-3"
       x="141.6412"
       y="48.209358"
       style="font-size:40.19376373px;font-style:normal;font-variant:normal;font-weight:normal;font-stretch:normal;text-align:start;line-height:125%;writing-mode:lr-tb;text-anchor:start;fill:#f36f21;fill-opacity:1;font-family:Roboto;-inkscape-font-specification:Roboto">HX</tspan></text>
</svg>