<?xml version="1.0" encoding="UTF-8" standalone="no"?>
<svg
   xmlns:dc="http://purl.org/dc/elements/1.1/"
   xmlns:cc="http://creativecommons.org/ns#"
   xmlns:rdf="http://www.w3.org/1999/02/22-rdf-syntax-ns#"
   xmlns:svg="http://www.w3.org/2000/svg"
   xmlns="http://www.w3.org/2000/svg"
   xmlns:sodipodi="http://sodipodi.sourceforge.net/DTD/sodipodi-0.dtd"
   xmlns:inkscape="http://www.inkscape.org/namespaces/inkscape"
   version="1.1"
   id="Layer_1"
   x="0px"
   y="0px"
   width="215"
   height="64"
   viewBox="0 0 215 64"
   enable-background="new 0 0 128 128"
   xml:space="preserve"
   inkscape:version="0.48.4 r9939"
   sodipodi:docname="unihx_logo_complete.svg"
   inkscape:export-filename="/var/dev/projs/unihx/extra/assets/unihx_logo_64.png"
   inkscape:export-xdpi="90"
   inkscape:export-ydpi="90"><metadata
     id="metadata22"><rdf:RDF><cc:Work
         rdf:about=""><dc:format>image/svg+xml</dc:format><dc:type
           rdf:resource="http://purl.org/dc/dcmitype/StillImage" /><dc:title /></cc:Work></rdf:RDF></metadata><defs
     id="defs20" /><sodipodi:namedview
     pagecolor="#ffffff"
     bordercolor="#666666"
     borderopacity="1"
     objecttolerance="10"
     gridtolerance="10"
     guidetolerance="10"
     inkscape:pageopacity="0"
     inkscape:pageshadow="2"
     inkscape:window-width="707"
     inkscape:window-height="480"
     id="namedview18"
     showgrid="false"
     inkscape:zoom="0.98901497"
     inkscape:cx="119.54378"
     inkscape:cy="1.7578155"
     inkscape:window-x="227"
     inkscape:window-y="207"
     inkscape:window-maximized="0"
     inkscape:current-layer="Layer_1" /><linearGradient
     id="SVGID_1_"
     gradientUnits="userSpaceOnUse"
     x1="45.6152"
     y1="19.6147"
     x2="82.385002"
     y2="108.3848"><stop
       offset="0"
       style="stop-color:#666666"
       id="stop4" /><stop
       offset="1"
       style="stop-color:#000000"
       id="stop6" /></linearGradient><polygon
     points="84,96 64,116 44,96 44,84 32,84 12,64 32,44 44,44 44,32 64,12 84,32 84,44 96,44 116,64 96,84 84,84 "
     id="polygon8"
     style="fill:url(#SVGID_1_)"
     transform="scale(0.5,0.5)" /><polyline
     points="28,60 60,60 60,28 44,44 28,60 "
     id="polyline10"
     style="fill:#fdb813"
     transform="matrix(0.40207157,0,0,0.40207157,5.26742,5.26742)" /><polygon
     points="100,60 84,44 68,28 68,60 "
     id="polygon12"
     style="fill:#faa61a"
     transform="matrix(0.40207157,0,0,0.40207157,7.26742,5.26742)" /><polygon
     points="68,68 68,100 100,68 "
     id="polygon14"
     style="fill:#f58220"
     transform="matrix(0.40207157,0,0,0.40207157,7.26742,7.26742)" /><polyline
     points="28,68 60,100 60,68 28,68 "
     id="polyline16"
     style="fill:#e96a20"
     transform="matrix(0.40207157,0,0,0.40207157,5.26742,7.26742)" /><path
     inkscape:connector-curvature="0"
     id="path5361-6-7-3-3-3"
     style="fill:#111111;fill-opacity:1;fill-rule:nonzero;stroke:none;display:inline"
     d="m 88.289624,19.838473 0,18.176298 c 0,1.390222 0.587814,2.085538 2.085354,2.085538 1.604082,0 4.437065,-0.962588 6.78923,-2.191391 l 0,-18.070445 6.522422,0 0,26.035347 -4.97161,0 -0.641541,-2.192449 c -3.261436,1.604085 -7.377954,2.726852 -10.424941,2.726852 -4.330522,0 -5.880415,-3.04776 -5.880415,-7.697262 l 0,-18.872488 6.521501,0" /><path
     inkscape:connector-curvature="0"
     id="path5363-17-3-8-9-7"
     style="fill:#111111;fill-opacity:1;fill-rule:nonzero;stroke:none;display:inline"
     d="m 121.87207,45.873817 0,-18.176434 c 0,-1.390268 -0.58827,-2.084483 -2.08536,-2.084483 -1.60363,0 -4.43706,0.962405 -6.78969,2.191391 l 0,18.069529 -6.5215,0 0,-26.035347 4.97161,0 0.64245,2.192079 c 3.26007,-1.603717 7.37613,-2.726667 10.42403,-2.726667 4.33006,0 5.87996,3.04776 5.87996,7.698364 l 0,18.871571 -6.5215,0" /><path
     inkscape:connector-curvature="0"
     id="path5365-73-0-1-6-8"
     style="fill:#111111;fill-opacity:1;fill-rule:nonzero;stroke:none;display:inline"
     d="m 131.08189,45.873817 0,-26.035344 6.52242,0 0,26.035344 -6.52242,0 z m 0,-29.723544 0,-7.5378176 6.52242,0 0,7.5378176 -6.52242,0" /><text
     xml:space="preserve"
     style="font-size:35.85361481px;font-style:normal;font-variant:normal;font-weight:800;font-stretch:normal;text-align:start;line-height:125%;letter-spacing:0px;word-spacing:0px;writing-mode:lr-tb;text-anchor:start;fill:#f36f21;fill-opacity:1;stroke:none;display:inline;font-family:Raleway;-inkscape-font-specification:Raleway Ultra-Bold"
     x="140.98175"
     y="45.974266"
     id="text5584-8-9-8-1-6-3"
     sodipodi:linespacing="125%"><tspan
       sodipodi:role="line"
       id="tspan5586-3-8-3-6-2-3"
       x="140.98175"
       y="45.974266"
       style="font-size:35.85361481px;font-style:normal;font-variant:normal;font-weight:normal;font-stretch:normal;text-align:start;line-height:125%;writing-mode:lr-tb;text-anchor:start;fill:#f36f21;fill-opacity:1;font-family:Roboto;-inkscape-font-specification:Roboto">HX</tspan></text>
</svg>