<?xml version="1.0" encoding="UTF-8" standalone="no"?>
<svg
   xmlns:dc="http://purl.org/dc/elements/1.1/"
   xmlns:cc="http://creativecommons.org/ns#"
   xmlns:rdf="http://www.w3.org/1999/02/22-rdf-syntax-ns#"
   xmlns:svg="http://www.w3.org/2000/svg"
   xmlns="http://www.w3.org/2000/svg"
   xmlns:xlink="http://www.w3.org/1999/xlink"
   xmlns:sodipodi="http://sodipodi.sourceforge.net/DTD/sodipodi-0.dtd"
   xmlns:inkscape="http://www.inkscape.org/namespaces/inkscape"
   version="1.1"
   id="Layer_1"
   x="0px"
   y="0px"
   width="64"
   height="64"
   viewBox="0 0 64 64"
   enable-background="new 0 0 128 128"
   xml:space="preserve"
   inkscape:version="0.48.4 r9939"
   sodipodi:docname="unihx_config_logo_64.svg"
   inkscape:export-filename="/var/dev/projs/unihx/extra/assets/unihx_logo_64.png"
   inkscape:export-xdpi="90"
   inkscape:export-ydpi="90"><metadata
     id="metadata22"><rdf:RDF><cc:Work
         rdf:about=""><dc:format>image/svg+xml</dc:format><dc:type
           rdf:resource="http://purl.org/dc/dcmitype/StillImage" /><dc:title></dc:title></cc:Work></rdf:RDF></metadata><defs
     id="defs20"><linearGradient
       inkscape:collect="always"
       xlink:href="#SVGID_1_"
       id="linearGradient2998"
       x1="12.120313"
       y1="6.3828845"
       x2="45.394821"
       y2="51.637718"
       gradientUnits="userSpaceOnUse" /><linearGradient
       inkscape:collect="always"
       xlink:href="#SVGID_1_"
       id="linearGradient3003"
       gradientUnits="userSpaceOnUse"
       x1="12.120313"
       y1="6.3828845"
       x2="48.784653"
       y2="49.468227"
       gradientTransform="matrix(0.96079552,0,0,0.96079553,0.9614182,1.547672)" /></defs><sodipodi:namedview
     pagecolor="#ffffff"
     bordercolor="#666666"
     borderopacity="1"
     objecttolerance="10"
     gridtolerance="10"
     guidetolerance="10"
     inkscape:pageopacity="0"
     inkscape:pageshadow="2"
     inkscape:window-width="865"
     inkscape:window-height="974"
     id="namedview18"
     showgrid="false"
     inkscape:zoom="2.6074563"
     inkscape:cx="81.209419"
     inkscape:cy="-50.871791"
     inkscape:window-x="293"
     inkscape:window-y="24"
     inkscape:window-maximized="0"
     inkscape:current-layer="text2989" /><linearGradient
     id="SVGID_1_"
     gradientUnits="userSpaceOnUse"
     x1="45.6152"
     y1="19.6147"
     x2="82.385002"
     y2="108.3848"><stop
       offset="0"
       style="stop-color:#666666"
       id="stop4" /><stop
       offset="1"
       style="stop-color:#000000"
       id="stop6" /></linearGradient><g
     style="font-size:66.784935px;font-style:normal;font-variant:normal;font-weight:normal;font-stretch:normal;line-height:125%;letter-spacing:0px;word-spacing:0px;fill:url(#linearGradient2998);fill-opacity:1;stroke:none;font-family:FontAwesome;-inkscape-font-specification:FontAwesome"
     id="text2989"><path
       d="m 59.5,28.097005 c 0,-0.608723 -0.429688,-1.181641 -1.038412,-1.289063 l -6.552735,-1.002603 c -0.358072,-1.18164 -0.859375,-2.363282 -1.468098,-3.509115 1.217447,-1.682941 2.542319,-3.258466 3.759766,-4.905599 0.179035,-0.250651 0.286458,-0.501302 0.286458,-0.823568 0,-0.286458 -0.07162,-0.572916 -0.250651,-0.78776 -1.503905,-2.112628 -4.010418,-4.332684 -5.908203,-6.08724 -0.250651,-0.214843 -0.572918,-0.358073 -0.895183,-0.358073 -0.322265,0 -0.644531,0.107423 -0.859375,0.322266 l -5.084635,3.83138 C 40.450521,12.950521 39.376301,12.520833 38.266276,12.16276 L 37.263671,5.574219 C 37.192057,4.9654954 36.61914,4.5 35.974609,4.5 l -7.949218,0 c -0.644531,0 -1.145835,0.4296881 -1.289063,1.002604 -0.572916,2.148436 -0.787761,4.475914 -1.038412,6.660156 -1.110025,0.358073 -2.220052,0.823569 -3.258463,1.360678 L 17.498046,9.692057 C 17.211589,9.477214 16.889323,9.333985 16.567057,9.333985 c -1.217447,0 -6.051433,5.227865 -6.910807,6.409504 -0.179036,0.250652 -0.322266,0.501303 -0.322266,0.823568 0,0.322266 0.14323,0.608725 0.358073,0.859375 1.324868,1.611326 2.613934,3.222658 3.83138,4.941406 -0.572916,1.074219 -1.038411,2.148439 -1.396485,3.294271 L 5.4667968,26.664714 C 4.929688,26.772136 4.5,27.416667 4.5,27.953777 l 0,7.949218 c 0,0.608723 0.429688,1.18164 1.0384115,1.289062 l 6.5527335,0.966797 c 0.358074,1.217447 0.859376,2.39909 1.4681,3.544922 -1.217447,1.682941 -2.54232,3.258465 -3.759766,4.905599 -0.179036,0.250651 -0.286458,0.501303 -0.286458,0.823568 0,0.286458 0.07161,0.572917 0.250651,0.823567 1.503905,2.076821 4.010418,4.296878 5.908203,6.015626 0.25065,0.25065 0.572916,0.39388 0.895182,0.39388 0.322266,0 0.644532,-0.107422 0.895182,-0.322265 l 5.048828,-3.831381 c 1.038411,0.537109 2.112632,0.966797 3.222656,1.32487 l 1.002605,6.588542 C 26.807948,59.034505 27.38086,59.5 28.025391,59.5 l 7.949218,0 c 0.644531,0 1.145833,-0.429688 1.289062,-1.002604 0.572917,-2.148435 0.787761,-4.475914 1.038412,-6.660156 1.110025,-0.358073 2.220053,-0.823568 3.258464,-1.360677 l 4.941406,3.867188 c 0.286458,0.179035 0.608724,0.322265 0.930989,0.322265 1.217447,0 6.051433,-5.263673 6.910807,-6.409506 0.214844,-0.25065 0.322267,-0.501301 0.322267,-0.823567 0,-0.322265 -0.14323,-0.644531 -0.358074,-0.895182 -1.324868,-1.611327 -2.613933,-3.186851 -3.83138,-4.941406 0.572916,-1.038411 1.002604,-2.112632 1.396484,-3.258465 l 6.624349,-1.002603 C 59.070312,37.227865 59.5,36.583333 59.5,36.046224 l 0,-7.949219"
       style="fill:url(#linearGradient3003)"
       id="path3001"
       inkscape:connector-curvature="0"
       sodipodi:nodetypes="cccccsccsccccssccccscsccccssccccsccsccccssccccscsccccsc" /></g><polyline
     points="28,60 60,60 60,28 44,44 28,60 "
     id="polyline10"
     style="fill:#fdb813"
     transform="matrix(0.38630856,0,0,0.38630857,6.0223317,6.608586)" /><polygon
     points="100,60 84,44 68,28 68,60 "
     id="polygon12"
     style="fill:#faa61a"
     transform="matrix(0.38630856,0,0,0.38630857,7.943923,6.608586)" /><polygon
     points="100,68 68,68 68,100 "
     id="polygon14"
     style="fill:#f58220"
     transform="matrix(0.38630856,0,0,0.38630857,7.943923,8.530177)" /><polyline
     points="28,68 60,100 60,68 28,68 "
     id="polyline16"
     style="fill:#e96a20"
     transform="matrix(0.38630856,0,0,0.38630857,6.0223317,8.530177)" /></svg>