<?xml version="1.0" encoding="UTF-8" standalone="no"?>
<svg
   xmlns:dc="http://purl.org/dc/elements/1.1/"
   xmlns:cc="http://creativecommons.org/ns#"
   xmlns:rdf="http://www.w3.org/1999/02/22-rdf-syntax-ns#"
   xmlns:svg="http://www.w3.org/2000/svg"
   xmlns="http://www.w3.org/2000/svg"
   xmlns:sodipodi="http://sodipodi.sourceforge.net/DTD/sodipodi-0.dtd"
   xmlns:inkscape="http://www.inkscape.org/namespaces/inkscape"
   version="1.1"
   id="Layer_1"
   x="0px"
   y="0px"
   width="64"
   height="64"
   viewBox="0 0 64 64"
   enable-background="new 0 0 128 128"
   xml:space="preserve"
   inkscape:version="0.48.4 r9939"
   sodipodi:docname="unihx_logo_64.svg"
   inkscape:export-filename="/var/dev/projs/unihx/extra/assets/unihx_logo_64.png"
   inkscape:export-xdpi="90"
   inkscape:export-ydpi="90"><metadata
     id="metadata22"><rdf:RDF><cc:Work
         rdf:about=""><dc:format>image/svg+xml</dc:format><dc:type
           rdf:resource="http://purl.org/dc/dcmitype/StillImage" /><dc:title></dc:title></cc:Work></rdf:RDF></metadata><defs
     id="defs20" /><sodipodi:namedview
     pagecolor="#ffffff"
     bordercolor="#666666"
     borderopacity="1"
     objecttolerance="10"
     gridtolerance="10"
     guidetolerance="10"
     inkscape:pageopacity="0"
     inkscape:pageshadow="2"
     inkscape:window-width="707"
     inkscape:window-height="480"
     id="namedview18"
     showgrid="false"
     inkscape:zoom="2.6074563"
     inkscape:cx="29.201355"
     inkscape:cy="43.053726"
     inkscape:window-x="227"
     inkscape:window-y="207"
     inkscape:window-maximized="0"
     inkscape:current-layer="Layer_1" /><linearGradient
     id="SVGID_1_"
     gradientUnits="userSpaceOnUse"
     x1="45.6152"
     y1="19.6147"
     x2="82.385002"
     y2="108.3848"><stop
       offset="0"
       style="stop-color:#666666"
       id="stop4" /><stop
       offset="1"
       style="stop-color:#000000"
       id="stop6" /></linearGradient><polygon
     points="64,116 44,96 44,84 32,84 12,64 32,44 44,44 44,32 64,12 84,32 84,44 96,44 116,64 96,84 84,84 84,96 "
     id="polygon8"
     style="fill:url(#SVGID_1_)"
     transform="scale(0.5,0.5)" /><polyline
     points="28,60 60,60 60,28 44,44 28,60 "
     id="polyline10"
     style="fill:#fdb813"
     transform="matrix(0.40207157,0,0,0.40207157,5.26742,5.26742)" /><polygon
     points="84,44 68,28 68,60 100,60 "
     id="polygon12"
     style="fill:#faa61a"
     transform="matrix(0.40207157,0,0,0.40207157,7.26742,5.26742)" /><polygon
     points="68,68 68,100 100,68 "
     id="polygon14"
     style="fill:#f58220"
     transform="matrix(0.40207157,0,0,0.40207157,7.26742,7.26742)" /><polyline
     points="28,68 60,100 60,68 28,68 "
     id="polyline16"
     style="fill:#e96a20"
     transform="matrix(0.40207157,0,0,0.40207157,5.26742,7.26742)" /></svg>