<?xml version="1.0" encoding="utf-8"?>
<!-- Generator: Adobe Illustrator 16.0.0, SVG Export Plug-In . SVG Version: 6.00 Build 0)  -->
<!DOCTYPE svg PUBLIC "-//W3C//DTD SVG 1.1//EN" "http://www.w3.org/Graphics/SVG/1.1/DTD/svg11.dtd">
<svg version="1.1" id="Layer_2" xmlns="http://www.w3.org/2000/svg" xmlns:xlink="http://www.w3.org/1999/xlink" x="0px" y="0px"
	 width="1024px" height="1024px" viewBox="0 0 1024 1024" enable-background="new 0 0 1024 1024" xml:space="preserve">
<linearGradient id="SVGID_1_" gradientUnits="userSpaceOnUse" x1="364.9219" y1="156.9214" x2="659.0784" y2="867.0779">
	<stop  offset="0" style="stop-color:#666666"/>
	<stop  offset="1" style="stop-color:#000000"/>
</linearGradient>
<path fill="url(#SVGID_1_)" d="M768,352h-96l128,128H544V224l128,128v-96L512,96L352,256v96l128-128v256H224l128-128h-96L96,512
	l160,160h96v96l160,160l160-160v-96h96l160-160L768,352z M480,799.999l-256-256h256V799.999z M543.999,800V544h256L543.999,800z"/>
<polygon fill="#FDB813" points="480,480 480,224 352,352 224,480 "/>
<polygon fill="#FAA61A" points="544,480 800,480 672,352 544,224 "/>
<polygon fill="#F58220" points="543.999,800 799.999,544 543.999,544 "/>
<polygon fill="#E96A20" points="480,799.999 480,543.999 224,543.999 "/>
</svg>
